<?xml version="1.0" encoding="utf-8"?>
<!-- Generator: Adobe Illustrator 25.3.1, SVG Export Plug-In . SVG Version: 6.00 Build 0)  -->
<svg version="1.1" id="Layer_1" xmlns="http://www.w3.org/2000/svg" xmlns:xlink="http://www.w3.org/1999/xlink" x="0px" y="0px"
	 viewBox="0 0 609.41 912.94" enable-background="new 0 0 609.41 912.94" xml:space="preserve">
<g>
	<rect x="-9.65" display="none" width="616.75" height="912.94"/>
	<path display="none" fill="none" stroke="#000000" stroke-miterlimit="10" d="M135.79,456.41c5.62,6.27,11.58,12.23,17.85,17.85
		v-17.85H135.79z M380.37,305.26v75.58h55.34c-13.26,22.96-32.39,42.08-55.34,55.35v20.22H304.8v75.58
		c26.5,0,51.94-4.55,75.58-12.89c28.16-9.96,53.78-25.32,75.58-44.85c6.27-5.61,12.23-11.56,17.84-17.84
		c19.53-21.8,34.89-47.4,44.85-75.58c8.34-23.64,12.89-49.08,12.89-75.58H380.37z M304.8,380.84c41.73,0,75.58-33.83,75.58-75.58
		H304.8V380.84z M135.79,456.41c5.62,6.27,11.58,12.23,17.85,17.85c21.81,19.51,47.42,34.87,75.58,44.83v-62.68H135.79z
		 M904.73,229.68c-3.2-25.73-8.03-50.95-14.36-75.58c-6.67-25.91-15.01-51.14-24.91-75.58c-10.58-26.15-22.95-51.39-36.94-75.58
		c-15.34-26.53-32.65-51.8-51.74-75.58c-27.81-34.72-59.39-66.3-94.09-94.09c-23.79-19.09-49.05-36.4-75.58-51.74
		c-24.18-14-49.43-26.36-75.58-36.94c-24.44-9.9-49.67-18.24-75.58-24.91c-24.62-6.33-49.85-11.16-75.58-14.36
		c-24.76-3.1-49.99-4.69-75.58-4.69c-25.59,0-50.82,1.59-75.58,4.69c-25.73,3.2-50.95,8.03-75.58,14.36
		c-25.91,6.67-51.14,15.01-75.58,24.91c-26.15,10.58-51.39,22.95-75.58,36.94c-26.53,15.34-51.79,32.65-75.58,51.74
		c-34.72,27.8-66.3,59.37-94.09,94.09c-19.09,23.78-36.4,49.05-51.74,75.58c-14,24.18-26.36,49.43-36.94,75.58
		c-9.9,24.44-18.24,49.67-24.91,75.58c-6.33,24.62-11.16,49.85-14.36,75.58c-3.1,24.76-4.69,49.99-4.69,75.58
		c0,25.59,1.59,50.82,4.69,75.58c3.2,25.73,8.03,50.95,14.36,75.58c6.67,25.91,15.01,51.14,24.91,75.58
		c10.58,26.15,22.95,51.39,36.94,75.58c15.34,26.53,32.65,51.8,51.72,75.58c27.81,34.72,59.39,66.3,94.11,94.11
		c23.79,19.09,49.05,36.4,75.58,51.72c24.18,14,49.43,26.36,75.58,36.94c24.44,9.9,49.67,18.24,75.58,24.91
		c24.62,6.33,49.85,11.15,75.58,14.36V598.03c-26.81-6.89-52.19-17.38-75.58-30.91c-17.44-10.1-33.8-21.87-48.81-35.13
		c-9.48-8.36-18.41-17.29-26.77-26.77c-13.26-15.01-25.05-31.36-35.13-48.81c-13.54-23.38-24.02-48.76-30.91-75.58
		c-6.23-24.15-9.54-49.47-9.54-75.58c0-26.1,3.31-51.42,9.54-75.58c6.89-26.81,17.37-52.19,30.91-75.58
		c10.08-17.44,21.87-33.8,35.13-48.81c8.36-9.46,17.29-18.41,26.77-26.77c15.01-13.26,31.36-25.03,48.81-35.13
		c23.38-13.53,48.76-24.02,75.58-30.91c24.15-6.23,49.47-9.54,75.58-9.54c26.09,0,51.42,3.31,75.58,9.54v78.93
		c-23.64-8.34-49.08-12.89-75.58-12.89c-26.5,0-51.94,4.55-75.58,12.89c-28.16,9.96-53.77,25.32-75.58,44.83
		c-6.27,5.62-12.23,11.58-17.85,17.85c-19.51,21.81-34.87,47.42-44.83,75.58c-8.34,23.64-12.89,49.08-12.89,75.58
		c0,26.5,4.55,51.94,12.89,75.58c9.96,28.18,25.32,53.78,44.83,75.58c5.62,6.27,11.58,12.23,17.85,17.85
		c21.81,19.51,47.42,34.87,75.58,44.83v-82.91c22.23,12.86,48.04,20.22,75.58,20.22v75.58c26.5,0,51.94-4.55,75.58-12.89
		c28.16-9.96,53.78-25.32,75.58-44.85c6.27-5.61,12.23-11.56,17.84-17.84c19.53-21.8,34.89-47.4,44.85-75.58
		c8.34-23.64,12.89-49.08,12.89-75.58H304.8v75.58h-75.58v-75.58c0-41.73,33.83-75.58,75.58-75.58h292.77
		c6.23,24.15,9.54,49.47,9.54,75.58c0,26.1-3.31,51.42-9.54,75.58c-6.89,26.81-17.38,52.19-30.91,75.58
		c-10.1,17.44-21.87,33.8-35.13,48.81c-8.36,9.48-17.31,18.41-26.77,26.77c-15.02,13.24-31.36,25.03-48.81,35.13
		c-23.4,13.53-48.76,24.02-75.58,30.91c-24.15,6.23-49.49,9.54-75.58,9.54v302.31c25.59,0,50.82-1.59,75.58-4.69
		c25.73-3.2,50.95-8.03,75.58-14.36c25.91-6.67,51.14-15.01,75.58-24.91c26.15-10.58,51.39-22.95,75.58-36.94
		c26.53-15.33,51.79-32.63,75.58-51.72c34.72-27.81,66.3-59.39,94.11-94.11c19.08-23.78,36.38-49.05,51.72-75.58
		c14-24.18,26.36-49.43,36.94-75.58c9.9-24.44,18.24-49.67,24.91-75.58c6.33-24.62,11.16-49.85,14.36-75.58
		c3.1-24.76,4.69-49.99,4.69-75.58C909.41,279.67,907.83,254.44,904.73,229.68z M304.8,305.26v75.58
		c41.73,0,75.58-33.83,75.58-75.58H304.8z M380.37,305.26v75.58h55.34c-13.26,22.96-32.39,42.08-55.34,55.35v20.22H304.8v75.58
		c26.5,0,51.94-4.55,75.58-12.89c28.16-9.96,53.78-25.32,75.58-44.85c6.27-5.61,12.23-11.56,17.84-17.84
		c19.53-21.8,34.89-47.4,44.85-75.58c8.34-23.64,12.89-49.08,12.89-75.58H380.37z M135.79,456.41c5.62,6.27,11.58,12.23,17.85,17.85
		c21.81,19.51,47.42,34.87,75.58,44.83v-62.68H135.79z"/>
	<path display="none" fill="none" stroke="#000000" stroke-miterlimit="10" d="M135.79,456.41c5.62,6.27,11.58,12.23,17.85,17.85
		v-17.85H135.79z M380.37,305.26v75.58h55.34c-13.26,22.96-32.39,42.08-55.34,55.35v20.22H304.8v75.58
		c26.5,0,51.94-4.55,75.58-12.89c28.16-9.96,53.78-25.32,75.58-44.85c6.27-5.61,12.23-11.56,17.84-17.84
		c19.53-21.8,34.89-47.4,44.85-75.58c8.34-23.64,12.89-49.08,12.89-75.58H380.37z M304.8,380.84c41.73,0,75.58-33.83,75.58-75.58
		H304.8V380.84z M135.79,456.41c5.62,6.27,11.58,12.23,17.85,17.85c21.81,19.51,47.42,34.87,75.58,44.83v-62.68H135.79z
		 M828.47,229.68c-3.69-25.85-9.25-51.07-16.54-75.58c-7.77-26.09-17.5-51.35-29.02-75.58c-12.58-26.48-27.28-51.74-43.9-75.58
		c-16.88-24.2-35.73-46.93-56.34-67.94c-2.52-2.57-5.06-5.11-7.63-7.63c-21.01-20.6-43.74-39.45-67.94-56.34
		c-23.84-16.63-49.09-31.33-75.58-43.9c-24.23-11.53-49.49-21.25-75.58-29.02c-24.5-7.29-49.73-12.85-75.58-16.54
		c-24.68-3.54-49.91-5.37-75.58-5.37c-25.67,0-50.89,1.83-75.58,5.37c-25.85,3.69-51.07,9.25-75.58,16.54
		c-26.09,7.77-51.35,17.49-75.58,29.02c-26.48,12.56-51.74,27.27-75.58,43.9c-24.2,16.88-46.93,35.73-67.94,56.34
		c-2.57,2.52-5.11,5.06-7.63,7.63c-20.6,21.01-39.45,43.74-56.34,67.94c-16.61,23.84-31.32,49.09-43.9,75.58
		c-11.52,24.23-21.25,49.49-29.02,75.58c-7.29,24.5-12.85,49.73-16.54,75.58c-3.54,24.68-5.37,49.91-5.37,75.58
		c0,25.67,1.83,50.89,5.37,75.58c3.69,25.85,9.25,51.07,16.54,75.58c7.77,26.09,17.5,51.35,29.02,75.58
		c12.58,26.48,27.28,51.74,43.9,75.58c16.88,24.2,35.73,46.93,56.34,67.94c2.52,2.57,5.06,5.11,7.63,7.63
		c21.01,20.6,43.74,39.45,67.94,56.34c23.84,16.63,49.09,31.33,75.58,43.89c24.23,11.53,49.49,21.25,75.58,29.02
		c24.5,7.29,49.73,12.85,75.58,16.54v-230.9c-26.81-6.89-52.19-17.38-75.58-30.91c-17.44-10.1-33.8-21.87-48.81-35.13
		c-9.48-8.36-18.41-17.29-26.77-26.77c-13.26-15.01-25.05-31.36-35.13-48.81c-13.54-23.38-24.02-48.76-30.91-75.58
		c-6.23-24.15-9.54-49.47-9.54-75.58c0-26.1,3.31-51.42,9.54-75.58c6.89-26.81,17.37-52.19,30.91-75.58
		c10.08-17.44,21.87-33.8,35.13-48.81c8.36-9.46,17.29-18.41,26.77-26.77c15.01-13.26,31.36-25.03,48.81-35.13
		c23.38-13.53,48.76-24.02,75.58-30.91c24.15-6.23,49.47-9.54,75.58-9.54c26.09,0,51.42,3.31,75.58,9.54v78.93
		c-23.64-8.34-49.08-12.89-75.58-12.89c-26.5,0-51.94,4.55-75.58,12.89c-28.16,9.96-53.77,25.32-75.58,44.83
		c-6.27,5.62-12.23,11.58-17.85,17.85c-19.51,21.81-34.87,47.42-44.83,75.58c-8.34,23.64-12.89,49.08-12.89,75.58
		c0,26.5,4.55,51.94,12.89,75.58c9.96,28.18,25.32,53.78,44.83,75.58c5.62,6.27,11.58,12.23,17.85,17.85
		c21.81,19.51,47.42,34.87,75.58,44.83v-82.91c22.23,12.86,48.04,20.22,75.58,20.22v75.58c26.5,0,51.94-4.55,75.58-12.89
		c28.16-9.96,53.78-25.32,75.58-44.85c6.27-5.61,12.23-11.56,17.84-17.84c19.53-21.8,34.89-47.4,44.85-75.58
		c8.34-23.64,12.89-49.08,12.89-75.58H304.8v75.58h-75.58v-75.58c0-41.73,33.83-75.58,75.58-75.58h292.77
		c6.23,24.15,9.54,49.47,9.54,75.58c0,26.1-3.31,51.42-9.54,75.58c-6.89,26.81-17.38,52.19-30.91,75.58
		c-10.1,17.44-21.87,33.8-35.13,48.81c-8.36,9.48-17.31,18.41-26.77,26.77c-15.02,13.24-31.36,25.03-48.81,35.13
		c-23.4,13.53-48.76,24.02-75.58,30.91c-24.15,6.23-49.49,9.54-75.58,9.54V834.3c25.67,0,50.89-1.83,75.58-5.37
		c25.85-3.69,51.07-9.25,75.58-16.54c26.09-7.77,51.35-17.49,75.58-29.02c26.48-12.56,51.74-27.27,75.58-43.89
		c24.2-16.88,46.93-35.73,67.94-56.34c2.57-2.52,5.11-5.06,7.63-7.63c20.6-21.01,39.45-43.74,56.34-67.94
		c16.61-23.84,31.32-49.09,43.9-75.58c11.52-24.23,21.25-49.49,29.02-75.58c7.29-24.5,12.85-49.73,16.54-75.58
		c3.54-24.68,5.37-49.91,5.37-75.58C833.84,279.59,832.01,254.37,828.47,229.68z M304.8,305.26v75.58
		c41.73,0,75.58-33.83,75.58-75.58H304.8z M380.37,305.26v75.58h55.34c-13.26,22.96-32.39,42.08-55.34,55.35v20.22H304.8v75.58
		c26.5,0,51.94-4.55,75.58-12.89c28.16-9.96,53.78-25.32,75.58-44.85c6.27-5.61,12.23-11.56,17.84-17.84
		c19.53-21.8,34.89-47.4,44.85-75.58c8.34-23.64,12.89-49.08,12.89-75.58H380.37z M135.79,456.41c5.62,6.27,11.58,12.23,17.85,17.85
		c21.81,19.51,47.42,34.87,75.58,44.83v-62.68H135.79z"/>
	<path display="none" fill="none" stroke="#000000" stroke-miterlimit="10" d="M135.79,456.41c5.62,6.27,11.58,12.23,17.85,17.85
		v-17.85H135.79z M380.37,305.26v75.58h55.34c-13.26,22.96-32.39,42.08-55.34,55.35v20.22H304.8v75.58
		c26.5,0,51.94-4.55,75.58-12.89c28.16-9.96,53.78-25.32,75.58-44.85c6.27-5.61,12.23-11.56,17.84-17.84
		c19.53-21.8,34.89-47.4,44.85-75.58c8.34-23.64,12.89-49.08,12.89-75.58H380.37z M304.8,380.84c41.73,0,75.58-33.83,75.58-75.58
		H304.8V380.84z M135.79,456.41c5.62,6.27,11.58,12.23,17.85,17.85c21.81,19.51,47.42,34.87,75.58,44.83v-62.68H135.79z
		 M751.99,229.68c-4.37-26.01-10.94-51.27-19.53-75.58c-9.34-26.41-21.04-51.68-34.89-75.58c-4.7-8.16-9.67-16.17-14.89-24
		c-12.06-18.15-25.41-35.39-39.9-51.57C631.56-9.59,619.65-21.5,607.1-32.72c-16.19-14.5-33.42-27.84-51.57-39.9
		c-7.83-5.21-15.84-10.19-24-14.89c-23.9-13.85-49.17-25.54-75.58-34.89c-24.31-8.59-49.56-15.16-75.58-19.53
		c-24.58-4.13-49.82-6.27-75.58-6.27c-25.76,0-51,2.15-75.58,6.27c-26.01,4.37-51.27,10.94-75.58,19.53
		c-26.41,9.34-51.68,21.04-75.58,34.89c-8.16,4.7-16.17,9.67-24,14.89C35.91-60.56,18.68-47.22,2.49-32.72
		C-10.06-21.5-21.97-9.59-33.18,2.95c-14.5,16.19-27.84,33.42-39.9,51.57c-5.21,7.83-10.19,15.84-14.89,24
		c-13.85,23.9-25.55,49.17-34.89,75.58c-8.59,24.31-15.16,49.56-19.53,75.58c-4.13,24.58-6.27,49.82-6.27,75.58
		c0,25.76,2.15,51,6.27,75.58c4.35,26.01,10.94,51.27,19.53,75.58c9.33,26.41,21.04,51.68,34.87,75.58c4.72,8.16,9.69,16.17,14.9,24
		c12.06,18.15,25.41,35.39,39.9,51.57c11.22,12.55,23.13,24.46,35.67,35.67c16.19,14.5,33.42,27.84,51.57,39.9
		c7.83,5.21,15.84,10.19,24,14.89c23.9,13.85,49.17,25.55,75.58,34.89c24.31,8.59,49.56,15.16,75.58,19.53V598.03
		c-26.81-6.89-52.19-17.38-75.58-30.91c-17.44-10.1-33.8-21.87-48.81-35.13c-9.48-8.36-18.41-17.29-26.77-26.77
		c-13.26-15.01-25.05-31.36-35.13-48.81c-13.54-23.38-24.02-48.76-30.91-75.58c-6.23-24.15-9.54-49.47-9.54-75.58
		c0-26.1,3.31-51.42,9.54-75.58c6.89-26.81,17.37-52.19,30.91-75.58c10.08-17.44,21.87-33.8,35.13-48.81
		c8.36-9.46,17.29-18.41,26.77-26.77c15.01-13.26,31.36-25.03,48.81-35.13c23.38-13.53,48.76-24.02,75.58-30.91
		c24.15-6.23,49.47-9.54,75.58-9.54c26.09,0,51.42,3.31,75.58,9.54v78.93c-23.64-8.34-49.08-12.89-75.58-12.89
		c-26.5,0-51.94,4.55-75.58,12.89c-28.16,9.96-53.77,25.32-75.58,44.83c-6.27,5.62-12.23,11.58-17.85,17.85
		c-19.51,21.81-34.87,47.42-44.83,75.58c-8.34,23.64-12.89,49.08-12.89,75.58c0,26.5,4.55,51.94,12.89,75.58
		c9.96,28.18,25.32,53.78,44.83,75.58c5.62,6.27,11.58,12.23,17.85,17.85c21.81,19.51,47.42,34.87,75.58,44.83v-82.91
		c22.23,12.86,48.04,20.22,75.58,20.22v75.58c26.5,0,51.94-4.55,75.58-12.89c28.16-9.96,53.78-25.32,75.58-44.85
		c6.27-5.61,12.23-11.56,17.84-17.84c19.53-21.8,34.89-47.4,44.85-75.58c8.34-23.64,12.89-49.08,12.89-75.58H304.8v75.58h-75.58
		v-75.58c0-41.73,33.83-75.58,75.58-75.58h292.77c6.23,24.15,9.54,49.47,9.54,75.58c0,26.1-3.31,51.42-9.54,75.58
		c-6.89,26.81-17.38,52.19-30.91,75.58c-10.1,17.44-21.87,33.8-35.13,48.81c-8.36,9.48-17.31,18.41-26.77,26.77
		c-15.02,13.24-31.36,25.03-48.81,35.13c-23.4,13.53-48.76,24.02-75.58,30.91c-24.15,6.23-49.49,9.54-75.58,9.54v151.15
		c25.76,0,51-2.15,75.58-6.27c26.01-4.37,51.27-10.94,75.58-19.53c26.41-9.34,51.68-21.04,75.58-34.89c8.16-4.7,16.17-9.67,24-14.89
		c18.15-12.06,35.39-25.41,51.57-39.9c12.55-11.22,24.46-23.13,35.67-35.67c14.5-16.19,27.84-33.42,39.9-51.57
		c5.21-7.83,10.19-15.84,14.9-24c13.83-23.9,25.55-49.17,34.87-75.58c8.59-24.31,15.18-49.56,19.53-75.58
		c4.13-24.58,6.27-49.82,6.27-75.58C758.26,279.5,756.11,254.26,751.99,229.68z M304.8,305.26v75.58
		c41.73,0,75.58-33.83,75.58-75.58H304.8z M380.37,305.26v75.58h55.34c-13.26,22.96-32.39,42.08-55.34,55.35v20.22H304.8v75.58
		c26.5,0,51.94-4.55,75.58-12.89c28.16-9.96,53.78-25.32,75.58-44.85c6.27-5.61,12.23-11.56,17.84-17.84
		c19.53-21.8,34.89-47.4,44.85-75.58c8.34-23.64,12.89-49.08,12.89-75.58H380.37z M135.79,456.41c5.62,6.27,11.58,12.23,17.85,17.85
		c21.81,19.51,47.42,34.87,75.58,44.83v-62.68H135.79z"/>
	<path display="none" fill="none" stroke="#000000" stroke-miterlimit="10" d="M135.79,456.41c5.62,6.27,11.58,12.23,17.85,17.85
		v-17.85H135.79z M380.37,305.26v75.58h55.34c-13.26,22.96-32.39,42.08-55.34,55.35v20.22H304.8v75.58
		c26.5,0,51.94-4.55,75.58-12.89c28.16-9.96,53.78-25.32,75.58-44.85c6.27-5.61,12.23-11.56,17.84-17.84
		c19.53-21.8,34.89-47.4,44.85-75.58c8.34-23.64,12.89-49.08,12.89-75.58H380.37z M304.8,380.84c41.73,0,75.58-33.83,75.58-75.58
		H304.8V380.84z M135.79,456.41c5.62,6.27,11.58,12.23,17.85,17.85c21.81,19.51,47.42,34.87,75.58,44.83v-62.68H135.79z
		 M675.12,229.68c-5.34-26.29-13.41-51.59-23.9-75.58c-11.77-26.98-26.62-52.31-44.09-75.58c-0.02-0.02-0.03-0.03-0.03-0.05
		c-21.49-28.6-46.93-54.04-75.53-75.53c-0.02-0.02-0.03-0.02-0.05-0.03c-23.25-17.47-48.6-32.32-75.58-44.11
		c-24-10.49-49.29-18.55-75.58-23.88c-24.43-4.96-49.7-7.56-75.58-7.56c-25.88,0-51.15,2.6-75.58,7.56
		c-26.29,5.34-51.57,13.39-75.58,23.88c-26.98,11.79-52.33,26.63-75.58,44.11c-0.02,0.02-0.03,0.02-0.05,0.03
		C49.42,24.45,23.98,49.89,2.49,78.48c0,0.02-0.02,0.03-0.03,0.05c-17.47,23.26-32.32,48.6-44.09,75.58
		c-10.49,23.99-18.56,49.29-23.9,75.58c-4.96,24.41-7.56,49.7-7.56,75.58c0,25.88,2.6,51.17,7.56,75.58
		c5.34,26.29,13.41,51.59,23.9,75.58c11.77,26.98,26.62,52.31,44.09,75.58c0.02,0.02,0.03,0.03,0.03,0.05
		c21.49,28.6,46.93,54.04,75.53,75.53c0.02,0.02,0.03,0.02,0.05,0.03c23.25,17.47,48.6,32.32,75.58,44.11
		c24,10.49,49.29,18.55,75.58,23.88v-77.56c-26.81-6.89-52.19-17.38-75.58-30.91c-17.44-10.1-33.8-21.87-48.81-35.13
		c-9.48-8.36-18.41-17.29-26.77-26.77c-13.26-15.01-25.05-31.36-35.13-48.81c-13.54-23.38-24.02-48.76-30.91-75.58
		c-6.23-24.15-9.54-49.47-9.54-75.58c0-26.1,3.31-51.42,9.54-75.58c6.89-26.81,17.37-52.19,30.91-75.58
		c10.08-17.44,21.87-33.8,35.13-48.81c8.36-9.46,17.29-18.41,26.77-26.77c15.01-13.26,31.36-25.03,48.81-35.13
		c23.38-13.53,48.76-24.02,75.58-30.91c24.15-6.23,49.47-9.54,75.58-9.54c26.09,0,51.42,3.31,75.58,9.54v78.93
		c-23.64-8.34-49.08-12.89-75.58-12.89c-26.5,0-51.94,4.55-75.58,12.89c-28.16,9.96-53.77,25.32-75.58,44.83
		c-6.27,5.62-12.23,11.58-17.85,17.85c-19.51,21.81-34.87,47.42-44.83,75.58c-8.34,23.64-12.89,49.08-12.89,75.58
		c0,26.5,4.55,51.94,12.89,75.58c9.96,28.18,25.32,53.78,44.83,75.58c5.62,6.27,11.58,12.23,17.85,17.85
		c21.81,19.51,47.42,34.87,75.58,44.83v-82.91c22.23,12.86,48.04,20.22,75.58,20.22v75.58c26.5,0,51.94-4.55,75.58-12.89
		c28.16-9.96,53.78-25.32,75.58-44.85c6.27-5.61,12.23-11.56,17.84-17.84c19.53-21.8,34.89-47.4,44.85-75.58
		c8.34-23.64,12.89-49.08,12.89-75.58H304.8v75.58h-75.58v-75.58c0-41.73,33.83-75.58,75.58-75.58h292.77
		c6.23,24.15,9.54,49.47,9.54,75.58c0,26.1-3.31,51.42-9.54,75.58c-6.89,26.81-17.38,52.19-30.91,75.58
		c-10.1,17.44-21.87,33.8-35.13,48.81c-8.36,9.48-17.31,18.41-26.77,26.77c-15.02,13.24-31.36,25.03-48.81,35.13
		c-23.4,13.53-48.76,24.02-75.58,30.91c-24.15,6.23-49.49,9.54-75.58,9.54v75.58c25.88,0,51.15-2.6,75.58-7.56
		c26.29-5.34,51.57-13.39,75.58-23.88c26.98-11.79,52.33-26.63,75.58-44.11c0.02-0.02,0.03-0.02,0.05-0.03
		c28.6-21.49,54.04-46.93,75.53-75.53c0-0.02,0.02-0.03,0.03-0.05c17.47-23.26,32.32-48.6,44.09-75.58
		c10.49-23.99,18.56-49.29,23.9-75.58c4.96-24.41,7.56-49.7,7.56-75.58C682.68,279.38,680.08,254.1,675.12,229.68z M304.8,305.26
		v75.58c41.73,0,75.58-33.83,75.58-75.58H304.8z M380.37,305.26v75.58h55.34c-13.26,22.96-32.39,42.08-55.34,55.35v20.22H304.8
		v75.58c26.5,0,51.94-4.55,75.58-12.89c28.16-9.96,53.78-25.32,75.58-44.85c6.27-5.61,12.23-11.56,17.84-17.84
		c19.53-21.8,34.89-47.4,44.85-75.58c8.34-23.64,12.89-49.08,12.89-75.58H380.37z M135.79,456.41c5.62,6.27,11.58,12.23,17.85,17.85
		c21.81,19.51,47.42,34.87,75.58,44.83v-62.68H135.79z"/>
	<path display="none" fill="none" stroke="#000000" stroke-miterlimit="10" d="M229.22,305.26v75.58h75.58v-75.58h226.73
		c0,26.5-4.55,51.94-12.89,75.58c-9.96,28.18-25.32,53.78-44.85,75.58c-5.61,6.27-11.56,12.23-17.84,17.84
		c-21.8,19.53-47.42,34.89-75.58,44.85c-23.64,8.34-49.08,12.89-75.58,12.89v-75.58c-27.54,0-53.34-7.36-75.58-20.22v82.91
		c-28.16-9.96-53.77-25.32-75.58-44.83c-6.27-5.62-12.23-11.58-17.85-17.85c-19.51-21.8-34.87-47.4-44.83-75.58
		c-8.34-23.64-12.89-49.08-12.89-75.58c0-26.5,4.55-51.94,12.89-75.58c9.96-28.16,25.32-53.77,44.83-75.58
		c5.62-6.27,11.58-12.23,17.85-17.85c21.81-19.51,47.42-34.87,75.58-44.83c23.64-8.34,49.08-12.89,75.58-12.89
		c26.5,0,51.94,4.55,75.58,12.89V12.49c26.81,6.89,52.18,17.38,75.58,30.91c17.44,10.1,33.78,21.89,48.81,35.13
		c9.46,8.36,18.41,17.31,26.77,26.77c13.26,15.01,25.03,31.36,35.13,48.81c13.53,23.38,24.02,48.76,30.91,75.58H304.8
		C263.05,229.68,229.22,263.53,229.22,305.26z"/>
	<path display="none" fill="none" stroke="#000000" stroke-miterlimit="10" d="M531.53,305.26c0,26.5-4.55,51.94-12.89,75.58
		c-9.96,28.18-25.32,53.78-44.85,75.58c-5.61,6.27-11.56,12.23-17.84,17.84c-21.8,19.53-47.42,34.89-75.58,44.85
		c-23.64,8.34-49.08,12.89-75.58,12.89v-75.58c-27.54,0-53.34-7.36-75.58-20.22v82.91c-28.16-9.96-53.77-25.32-75.58-44.83
		c-6.27-5.62-12.23-11.58-17.85-17.85c-19.51-21.8-34.87-47.4-44.83-75.58c-8.34-23.64-12.89-49.08-12.89-75.58
		c0-26.5,4.55-51.94,12.89-75.58c9.96-28.16,25.32-53.77,44.83-75.58c5.62-6.27,11.58-12.23,17.85-17.85
		c21.81-19.51,47.42-34.87,75.58-44.83c23.64-8.34,49.08-12.89,75.58-12.89c26.5,0,51.94,4.55,75.58,12.89
		c28.16,9.96,53.78,25.32,75.58,44.85c6.27,5.62,12.23,11.58,17.84,17.84c19.53,21.81,34.89,47.42,44.85,75.58H304.8
		c-41.75,0-75.58,33.84-75.58,75.58v75.58h75.58v-75.58H531.53z"/>
	<path fill="#FFFFFF" d="M607.1,305.26c0,26.1-3.31,51.42-9.54,75.58c-6.89,26.81-17.38,52.19-30.91,75.58
		c-10.1,17.44-21.87,33.8-35.13,48.81c-8.36,9.48-17.31,18.41-26.77,26.77c-15.02,13.24-31.36,25.03-48.81,35.13
		c-23.4,13.53-48.76,24.02-75.58,30.91c-24.15,6.23-49.49,9.54-75.58,9.54v302.31c-25.59,0-50.82-1.59-75.58-4.69V598.03
		c-26.81-6.89-52.19-17.38-75.58-30.91c-17.44-10.1-33.8-21.87-48.81-35.13c-9.48-8.36-18.41-17.29-26.77-26.77
		c-13.26-15.01-25.05-31.36-35.13-48.81c-13.54-23.38-24.02-48.76-30.91-75.58c-6.23-24.15-9.54-49.47-9.54-75.58
		c0-26.1,3.31-51.42,9.54-75.58c6.89-26.81,17.37-52.19,30.91-75.58c10.08-17.44,21.87-33.8,35.13-48.81
		c8.36-9.46,17.29-18.41,26.77-26.77c15.01-13.26,31.36-25.03,48.81-35.13c23.38-13.53,48.76-24.02,75.58-30.91
		c24.15-6.23,49.47-9.54,75.58-9.54c26.09,0,51.42,3.31,75.58,9.54v78.93c-23.64-8.34-49.08-12.89-75.58-12.89
		c-26.5,0-51.94,4.55-75.58,12.89c-28.16,9.96-53.77,25.32-75.58,44.83c-6.27,5.62-12.23,11.58-17.85,17.85
		c-19.51,21.81-34.87,47.42-44.83,75.58c-8.34,23.64-12.89,49.08-12.89,75.58c0,26.5,4.55,51.94,12.89,75.58
		c9.96,28.18,25.32,53.78,44.83,75.58c5.62,6.27,11.58,12.23,17.85,17.85c21.81,19.51,47.42,34.87,75.58,44.83v-82.91
		c22.23,12.86,48.04,20.22,75.58,20.22v75.58c26.5,0,51.94-4.55,75.58-12.89c28.16-9.96,53.78-25.32,75.58-44.85
		c6.27-5.61,12.23-11.56,17.84-17.84c19.53-21.8,34.89-47.4,44.85-75.58c8.34-23.64,12.89-49.08,12.89-75.58H304.8v75.58h-75.58
		v-75.58c0-41.73,33.83-75.58,75.58-75.58h292.77C603.79,253.84,607.1,279.16,607.1,305.26z"/>
	<path display="none" fill="none" stroke="#000000" stroke-miterlimit="10" d="M455.95,305.26c0,27.53-7.36,53.34-20.24,75.58
		c-13.26,22.96-32.39,42.08-55.34,55.35c-22.23,12.86-48.04,20.22-75.58,20.22c-27.54,0-53.34-7.36-75.58-20.22
		c-22.95-13.27-42.08-32.39-55.34-55.35c-12.88-22.23-20.24-48.05-20.24-75.58c0-27.53,7.36-53.34,20.24-75.58
		c13.26-22.96,32.39-42.08,55.34-55.35c22.23-12.86,48.04-20.22,75.58-20.22c27.54,0,53.34,7.36,75.58,20.22
		c22.95,13.27,42.08,32.39,55.34,55.35H304.8c-41.75,0-75.58,33.84-75.58,75.58v75.58h75.58v-75.58H455.95z"/>
	<path display="none" fill="none" stroke="#000000" stroke-miterlimit="10" d="M380.37,305.26c0,41.75-33.84,75.58-75.58,75.58
		v-75.58H380.37z"/>
	<path display="none" fill="none" stroke="#000000" stroke-miterlimit="10" d="M304.79,305.26"/>
</g>
<g display="none">
	<polyline display="inline" fill="none" stroke="#000000" stroke-miterlimit="10" points="2.49,1206.32 2.49,828.98 2.49,739.48 
		2.49,683.15 2.49,643.24 2.49,607.57 2.49,532.04 2.49,531.99 2.49,456.41 2.49,380.84 2.49,305.26 2.49,229.68 2.49,154.11 
		2.49,78.53 2.49,78.48 2.49,2.95 2.49,-32.72 2.49,-72.62 2.49,-128.96 2.49,-218.46 2.49,-595.8 	"/>
	<polyline display="inline" fill="none" stroke="#000000" stroke-miterlimit="10" points="2.49,1206.32 2.49,828.98 2.49,739.48 
		2.49,683.15 2.49,643.24 2.49,607.57 2.49,532.04 2.49,531.99 2.49,456.41 2.49,380.84 2.49,305.26 2.49,229.68 2.49,154.11 
		2.49,78.53 2.49,78.48 2.49,2.95 2.49,-32.72 2.49,-72.62 2.49,-128.96 2.49,-218.46 2.49,-595.8 	"/>
	<polyline display="inline" fill="none" stroke="#000000" stroke-miterlimit="10" points="-73.09,1206.32 -73.09,777.25 
		-73.09,683.15 -73.09,675.51 -73.09,607.57 -73.09,555.99 -73.09,531.99 -73.09,456.41 -73.09,380.84 -73.09,305.26 -73.09,229.68 
		-73.09,154.11 -73.09,78.53 -73.09,54.53 -73.09,2.95 -73.09,-64.99 -73.09,-72.62 -73.09,-166.72 -73.09,-595.8 	"/>
	<polyline display="inline" fill="none" stroke="#000000" stroke-miterlimit="10" points="78.07,1206.32 78.07,865.92 78.07,783.38 
		78.07,698.03 78.07,683.15 78.07,607.6 78.07,607.57 78.07,531.99 78.07,505.22 	"/>
	<polyline display="inline" fill="none" stroke="#000000" stroke-miterlimit="10" points="78.07,105.3 78.07,78.53 78.07,2.95 
		78.07,2.92 78.07,-72.62 78.07,-87.51 78.07,-172.85 78.07,-255.4 78.07,-595.8 	"/>
	<polyline display="inline" fill="none" stroke="#000000" stroke-miterlimit="10" points="78.07,1206.32 78.07,865.92 78.07,783.38 
		78.07,698.03 78.07,683.15 78.07,607.6 78.07,607.57 78.07,531.99 78.07,505.22 	"/>
	<polyline display="inline" fill="none" stroke="#000000" stroke-miterlimit="10" points="78.07,105.3 78.07,78.53 78.07,2.95 
		78.07,2.92 78.07,-72.62 78.07,-87.51 78.07,-172.85 78.07,-255.4 78.07,-595.8 	"/>
	<polyline display="inline" fill="none" stroke="#000000" stroke-miterlimit="10" points="153.64,1206.32 153.64,890.83 
		153.64,812.4 153.64,732.92 153.64,683.15 153.64,651.71 153.64,607.57 153.64,567.12 	"/>
	<polyline display="inline" fill="none" stroke="#000000" stroke-miterlimit="10" points="153.64,474.27 153.64,456.41 
		153.64,380.84 153.64,305.26 153.64,229.68 153.64,154.11 153.64,136.26 	"/>
	<polyline display="inline" fill="none" stroke="#000000" stroke-miterlimit="10" points="153.64,43.4 153.64,2.95 153.64,-41.18 
		153.64,-72.62 153.64,-122.4 153.64,-201.88 153.64,-280.31 153.64,-595.8 	"/>
	<polyline display="inline" fill="none" stroke="#000000" stroke-miterlimit="10" points="153.64,1206.32 153.64,890.83 
		153.64,812.4 153.64,732.92 153.64,683.15 153.64,651.71 153.64,607.57 153.64,567.12 	"/>
	<polyline display="inline" fill="none" stroke="#000000" stroke-miterlimit="10" points="153.64,474.27 153.64,456.41 
		153.64,380.84 153.64,305.26 153.64,229.68 153.64,154.11 153.64,136.26 	"/>
	<polyline display="inline" fill="none" stroke="#000000" stroke-miterlimit="10" points="153.64,43.4 153.64,2.95 153.64,-41.18 
		153.64,-72.62 153.64,-122.4 153.64,-201.88 153.64,-280.31 153.64,-595.8 	"/>
	<line display="inline" fill="none" stroke="#000000" stroke-miterlimit="10" x1="229.22" y1="1206.32" x2="229.22" y2="905.19"/>
	<polyline display="inline" fill="none" stroke="#000000" stroke-miterlimit="10" points="229.22,305.26 229.22,229.68 
		229.22,174.33 229.22,154.11 229.22,91.42 	"/>
	<line display="inline" fill="none" stroke="#000000" stroke-miterlimit="10" x1="229.22" y1="436.19" x2="229.22" y2="380.84"/>
	<polyline display="inline" fill="none" stroke="#000000" stroke-miterlimit="10" points="229.22,12.49 229.22,2.95 229.22,-65.07 
		229.22,-72.62 229.22,-141.93 229.22,-218.41 229.22,-294.67 229.22,-595.8 	"/>
	<line display="inline" fill="none" stroke="#000000" stroke-miterlimit="10" x1="304.8" y1="1206.32" x2="304.8" y2="909.88"/>
	<polyline display="inline" fill="none" stroke="#000000" stroke-miterlimit="10" points="304.8,78.53 304.8,154.11 304.8,229.68 	
		"/>
	<line display="inline" fill="none" stroke="#000000" stroke-miterlimit="10" x1="304.8" y1="456.41" x2="304.8" y2="380.84"/>
	<polyline display="inline" fill="none" stroke="#000000" stroke-miterlimit="10" points="304.8,2.95 304.8,-72.62 304.8,-148.2 
		304.8,-223.78 304.8,-299.35 304.8,-595.8 	"/>
	<polyline display="inline" fill="none" stroke="#000000" stroke-miterlimit="10" points="380.37,1206.32 380.37,905.19 
		380.37,828.93 380.37,752.45 380.37,683.15 380.37,675.59 380.37,607.57 380.37,598.03 	"/>
	<polyline display="inline" fill="none" stroke="#000000" stroke-miterlimit="10" points="380.37,91.42 380.37,154.11 
		380.37,174.33 380.37,229.68 	"/>
	<polyline display="inline" fill="none" stroke="#000000" stroke-miterlimit="10" points="380.37,305.26 380.37,380.84 
		380.37,436.19 380.37,456.41 380.37,519.1 	"/>
	<polyline display="inline" fill="none" stroke="#000000" stroke-miterlimit="10" points="380.37,12.49 380.37,2.95 380.37,-65.07 
		380.37,-72.62 380.37,-141.93 380.37,-218.41 380.37,-294.67 380.37,-595.8 	"/>
	<polyline display="inline" fill="none" stroke="#000000" stroke-miterlimit="10" points="455.95,1206.32 455.95,890.83 
		455.95,812.4 455.95,732.92 455.95,683.15 455.95,651.71 455.95,607.57 455.95,567.12 	"/>
	<polyline display="inline" fill="none" stroke="#000000" stroke-miterlimit="10" points="455.95,-595.8 455.95,-280.31 
		455.95,-201.88 455.95,-122.4 455.95,-72.62 455.95,-41.18 455.95,2.95 455.95,43.4 455.95,78.53 455.95,136.27 455.95,154.11 
		455.95,229.68 	"/>
	<polyline display="inline" fill="none" stroke="#000000" stroke-miterlimit="10" points="455.95,305.26 455.95,380.84 
		455.95,456.41 455.95,474.25 	"/>
	<polyline display="inline" fill="none" stroke="#000000" stroke-miterlimit="10" points="531.53,1206.32 531.53,865.92 
		531.53,783.38 531.53,698.03 531.53,683.15 531.53,607.6 531.53,607.57 531.53,531.99 531.53,505.22 	"/>
	<polyline display="inline" fill="none" stroke="#000000" stroke-miterlimit="10" points="531.53,-595.8 531.53,-255.4 
		531.53,-172.85 531.53,-87.51 531.53,-72.62 531.53,2.92 531.53,2.95 531.53,78.53 531.53,105.3 531.53,154.11 531.53,229.68 	"/>
	<polyline display="inline" fill="none" stroke="#000000" stroke-miterlimit="10" points="607.1,-595.8 607.1,-218.46 
		607.1,-128.96 607.1,-72.62 607.1,-32.72 607.1,2.95 607.1,78.48 607.1,78.53 607.1,154.11 607.1,229.68 607.1,305.26 
		607.1,380.84 607.1,456.41 607.1,531.99 607.1,532.04 607.1,607.57 607.1,643.24 607.1,683.15 607.1,739.48 607.1,828.98 
		607.1,1206.32 	"/>
	<polyline display="inline" fill="none" stroke="#000000" stroke-miterlimit="10" points="682.68,-595.8 682.68,-166.72 
		682.68,-72.62 682.68,-64.99 682.68,2.95 682.68,54.53 682.68,78.53 682.68,154.11 682.68,229.68 682.68,305.26 682.68,380.84 
		682.68,456.41 682.68,531.99 682.68,555.99 682.68,607.57 682.68,675.51 682.68,683.15 682.68,777.25 682.68,1206.32 	"/>
</g>
<g display="none">
	<polyline display="inline" fill="none" stroke="#000000" stroke-miterlimit="10" points="-596.26,607.57 -218.92,607.57 
		-129.42,607.57 -73.09,607.57 -33.18,607.57 2.49,607.57 78.02,607.57 78.07,607.57 153.64,607.57 229.22,607.57 	"/>
	<polyline display="inline" fill="none" stroke="#000000" stroke-miterlimit="10" points="304.8,607.57 380.37,607.57 
		455.95,607.57 531.53,607.57 531.57,607.57 607.1,607.57 642.78,607.57 682.68,607.57 739.02,607.57 828.51,607.57 1205.86,607.57 
			"/>
	<polyline display="inline" fill="none" stroke="#000000" stroke-miterlimit="10" points="-596.26,607.57 -218.92,607.57 
		-129.42,607.57 -73.09,607.57 -33.18,607.57 2.49,607.57 78.02,607.57 78.07,607.57 153.64,607.57 229.22,607.57 	"/>
	<polyline display="inline" fill="none" stroke="#000000" stroke-miterlimit="10" points="304.8,607.57 380.37,607.57 
		455.95,607.57 531.53,607.57 531.57,607.57 607.1,607.57 642.78,607.57 682.68,607.57 739.02,607.57 828.51,607.57 1205.86,607.57 
			"/>
	<polyline display="inline" fill="none" stroke="#000000" stroke-miterlimit="10" points="-596.26,683.15 -167.2,683.15 
		-73.09,683.15 -65.46,683.15 2.49,683.15 54.06,683.15 78.07,683.15 153.64,683.15 229.22,683.15 	"/>
	<polyline display="inline" fill="none" stroke="#000000" stroke-miterlimit="10" points="304.8,683.15 380.37,683.15 
		455.95,683.15 531.53,683.15 555.53,683.15 607.1,683.15 675.05,683.15 682.68,683.15 776.79,683.15 1205.86,683.15 	"/>
	<polyline display="inline" fill="none" stroke="#000000" stroke-miterlimit="10" points="1205.86,531.99 865.46,531.99 
		782.91,531.99 697.59,531.99 682.68,531.99 607.13,531.99 607.1,531.99 531.53,531.99 504.76,531.99 	"/>
	<polyline display="inline" fill="none" stroke="#000000" stroke-miterlimit="10" points="104.83,531.99 78.07,531.99 2.49,531.99 
		2.46,531.99 -73.09,531.99 -87.99,531.99 -173.32,531.99 -255.86,531.99 -596.26,531.99 	"/>
	<polyline display="inline" fill="none" stroke="#000000" stroke-miterlimit="10" points="1205.86,531.99 865.46,531.99 
		782.91,531.99 697.59,531.99 682.68,531.99 607.13,531.99 607.1,531.99 531.53,531.99 504.76,531.99 	"/>
	<polyline display="inline" fill="none" stroke="#000000" stroke-miterlimit="10" points="104.83,531.99 78.07,531.99 2.49,531.99 
		2.46,531.99 -73.09,531.99 -87.99,531.99 -173.32,531.99 -255.86,531.99 -596.26,531.99 	"/>
	<polyline display="inline" fill="none" stroke="#000000" stroke-miterlimit="10" points="1205.86,456.41 890.37,456.41 
		811.93,456.41 732.46,456.41 682.68,456.41 651.23,456.41 607.1,456.41 566.66,456.41 	"/>
	<polyline display="inline" fill="none" stroke="#000000" stroke-miterlimit="10" points="135.79,456.41 153.64,456.41 
		229.22,456.41 	"/>
	<polyline display="inline" fill="none" stroke="#000000" stroke-miterlimit="10" points="304.8,456.41 380.37,456.41 
		455.95,456.41 473.79,456.41 	"/>
	<polyline display="inline" fill="none" stroke="#000000" stroke-miterlimit="10" points="42.94,456.41 2.49,456.41 -41.63,456.41 
		-73.09,456.41 -122.86,456.41 -202.34,456.41 -280.77,456.41 -596.26,456.41 	"/>
	<polyline display="inline" fill="none" stroke="#000000" stroke-miterlimit="10" points="1205.86,456.41 890.37,456.41 
		811.93,456.41 732.46,456.41 682.68,456.41 651.23,456.41 607.1,456.41 566.66,456.41 	"/>
	<polyline display="inline" fill="none" stroke="#000000" stroke-miterlimit="10" points="135.79,456.41 153.64,456.41 
		229.22,456.41 	"/>
	<polyline display="inline" fill="none" stroke="#000000" stroke-miterlimit="10" points="304.8,456.41 380.37,456.41 
		455.95,456.41 473.79,456.41 	"/>
	<polyline display="inline" fill="none" stroke="#000000" stroke-miterlimit="10" points="42.94,456.41 2.49,456.41 -41.63,456.41 
		-73.09,456.41 -122.86,456.41 -202.34,456.41 -280.77,456.41 -596.26,456.41 	"/>
	<polyline display="inline" fill="none" stroke="#000000" stroke-miterlimit="10" points="597.57,380.84 607.1,380.84 
		675.12,380.84 682.68,380.84 751.99,380.84 828.47,380.84 904.73,380.84 1205.86,380.84 	"/>
	<polyline display="inline" fill="none" stroke="#000000" stroke-miterlimit="10" points="229.22,380.84 173.88,380.84 
		153.64,380.84 90.96,380.84 	"/>
	<polyline display="inline" fill="none" stroke="#000000" stroke-miterlimit="10" points="304.8,380.84 380.37,380.84 
		435.71,380.84 455.95,380.84 518.63,380.84 	"/>
	<polyline display="inline" fill="none" stroke="#000000" stroke-miterlimit="10" points="12.03,380.84 2.49,380.84 -65.53,380.84 
		-73.09,380.84 -142.39,380.84 -218.88,380.84 -295.13,380.84 -596.26,380.84 	"/>
	<polyline display="inline" fill="none" stroke="#000000" stroke-miterlimit="10" points="78.07,305.26 153.64,305.26 
		229.22,305.26 	"/>
	<polyline display="inline" fill="none" stroke="#000000" stroke-miterlimit="10" points="607.1,305.26 682.68,305.26 
		758.26,305.26 833.84,305.26 909.41,305.26 1205.86,305.26 	"/>
	<polyline display="inline" fill="none" stroke="#000000" stroke-miterlimit="10" points="2.49,305.26 -73.09,305.26 
		-148.67,305.26 -224.24,305.26 -299.82,305.26 -596.26,305.26 	"/>
	<polyline display="inline" fill="none" stroke="#000000" stroke-miterlimit="10" points="90.96,229.68 153.64,229.68 
		173.88,229.68 229.22,229.68 304.8,229.68 	"/>
	<polyline display="inline" fill="none" stroke="#000000" stroke-miterlimit="10" points="597.57,229.68 607.1,229.68 
		675.12,229.68 682.68,229.68 751.99,229.68 828.47,229.68 904.73,229.68 1205.86,229.68 	"/>
	<polyline display="inline" fill="none" stroke="#000000" stroke-miterlimit="10" points="12.03,229.68 2.49,229.68 -65.53,229.68 
		-73.09,229.68 -142.39,229.68 -218.88,229.68 -295.13,229.68 -596.26,229.68 	"/>
	<polyline display="inline" fill="none" stroke="#000000" stroke-miterlimit="10" points="1205.86,154.11 890.37,154.11 
		811.93,154.11 732.46,154.11 682.68,154.11 651.23,154.11 607.1,154.11 566.66,154.11 531.53,154.11 473.79,154.11 455.95,154.11 
		380.37,154.11 304.8,154.11 229.22,154.11 153.64,154.11 135.79,154.11 	"/>
	<polyline display="inline" fill="none" stroke="#000000" stroke-miterlimit="10" points="42.94,154.11 2.49,154.11 -41.63,154.11 
		-73.09,154.11 -122.86,154.11 -202.34,154.11 -280.77,154.11 -596.26,154.11 	"/>
	<polyline display="inline" fill="none" stroke="#000000" stroke-miterlimit="10" points="1205.86,78.53 865.46,78.53 782.91,78.53 
		697.57,78.53 682.68,78.53 607.13,78.53 607.1,78.53 531.53,78.53 504.76,78.53 455.95,78.53 380.37,78.53 	"/>
	<polyline display="inline" fill="none" stroke="#000000" stroke-miterlimit="10" points="104.83,78.53 78.07,78.53 2.49,78.53 
		2.46,78.53 -73.09,78.53 -87.98,78.53 -173.32,78.53 -255.86,78.53 -596.26,78.53 	"/>
	<polyline display="inline" fill="none" stroke="#000000" stroke-miterlimit="10" points="-596.26,2.95 -218.92,2.95 -129.42,2.95 
		-73.09,2.95 -33.18,2.95 2.49,2.95 78.02,2.95 78.07,2.95 153.64,2.95 229.22,2.95 304.8,2.95 380.37,2.95 455.95,2.95 
		531.53,2.95 531.57,2.95 607.1,2.95 642.78,2.95 682.68,2.95 739.02,2.95 828.51,2.95 1205.86,2.95 	"/>
	<polyline display="inline" fill="none" stroke="#000000" stroke-miterlimit="10" points="-596.26,-72.62 -167.18,-72.62 
		-73.09,-72.62 -65.46,-72.62 2.49,-72.62 54.06,-72.62 78.07,-72.62 153.64,-72.62 229.22,-72.62 304.8,-72.62 380.37,-72.62 
		455.95,-72.62 531.53,-72.62 555.53,-72.62 607.1,-72.62 675.05,-72.62 682.68,-72.62 776.77,-72.62 1205.86,-72.62 	"/>
</g>
</svg>
